<svg preserveAspectRatio="none" width="100%" height="100%" overflow="visible" style="display: block;" viewBox="0 0 16.7808 16.7808" fill="none" xmlns="http://www.w3.org/2000/svg">
<g id="Icon_6_">
<path id="Background_7_" d="M4.26567 0C4.17172 0 3.9838 0 3.81468 0C3.43885 0.0187915 2.95027 0.037583 2.74356 0.0939576C2.40531 0.169124 2.08586 0.263081 1.82278 0.394622C1.52211 0.544954 1.24024 0.751661 0.99595 0.99595C0.751661 1.24024 0.563745 1.50332 0.394622 1.82278C0.263081 2.08586 0.150332 2.40531 0.0939576 2.72477C0.0563745 2.95027 0.0187915 3.43885 0 3.81468V4.26567V12.5151V12.9661C0.0187915 13.342 0.037583 13.8306 0.0939576 14.0373C0.169124 14.3755 0.263081 14.695 0.394622 14.958C0.544954 15.2587 0.751661 15.5406 0.99595 15.7849C1.24024 16.0292 1.50332 16.2171 1.82278 16.3862C2.08586 16.5177 2.40531 16.6305 2.72477 16.6869C2.95027 16.7244 3.43885 16.762 3.81468 16.7808H4.26567H12.5151H12.9661C13.342 16.762 13.8306 16.7432 14.0373 16.6869C14.3755 16.6117 14.695 16.5177 14.958 16.3862C15.2587 16.2359 15.5406 16.0292 15.7849 15.7849C16.0292 15.5406 16.2171 15.2775 16.3862 14.958C16.5177 14.695 16.6305 14.3755 16.6869 14.0561C16.7244 13.8306 16.762 13.342 16.7808 12.9661C16.7808 12.8158 16.7808 12.6091 16.7808 12.5151V4.26567C16.7808 4.17172 16.7808 3.9838 16.7808 3.81468C16.762 3.43885 16.7432 2.95027 16.6869 2.74356C16.6117 2.40531 16.5177 2.08586 16.3862 1.82278C16.2359 1.52211 16.0292 1.24024 15.7849 0.99595C15.5406 0.751661 15.2775 0.563745 14.958 0.394622C14.695 0.263081 14.3755 0.150332 14.0561 0.0939576C13.8306 0.0563745 13.342 0.0187915 12.9661 0C12.8158 0 12.6091 0 12.5151 0H4.26567Z" fill="url(#paint0_linear_0_128)"/>
<path id="WhatsApp-Icon" d="M11.4441 9.28301C11.2938 9.20785 10.5421 8.85081 10.4106 8.79443C10.279 8.73806 10.1663 8.71927 10.0723 8.8696C9.97837 9.01993 9.6777 9.35818 9.60254 9.45214C9.50858 9.54609 9.43341 9.56488 9.28308 9.48972C9.13275 9.41455 8.64417 9.26422 8.06163 8.75685C7.61063 8.36223 7.30997 7.87365 7.21601 7.72332C7.12206 7.57298 7.21601 7.49782 7.29118 7.42265C7.36635 7.34749 7.44151 7.25353 7.51668 7.15957C7.59184 7.06561 7.61064 7.00924 7.66701 6.91528C7.72338 6.82132 7.6858 6.72737 7.64822 6.6522C7.61064 6.57703 7.30997 5.84417 7.17843 5.5435C7.04689 5.26163 6.93414 5.29921 6.84018 5.28042C6.74623 5.28042 6.65227 5.28042 6.55831 5.28042C6.46435 5.28042 6.29523 5.318 6.16369 5.46833C6.03215 5.61867 5.63753 5.97571 5.63753 6.70857C5.63753 7.44144 6.18248 8.13673 6.25765 8.24948C6.33281 8.34344 7.32876 9.84676 8.83208 10.4857C9.18912 10.636 9.47099 10.73 9.69649 10.8051C10.0535 10.9179 10.3918 10.8991 10.6549 10.8615C10.9367 10.8239 11.5569 10.5045 11.6696 10.1662C11.8011 9.82796 11.8011 9.5273 11.7636 9.47093C11.6884 9.39576 11.5944 9.35818 11.4441 9.28301ZM8.569 13.1541C7.66701 13.1541 6.8026 12.9098 6.03215 12.4588L5.84423 12.346L3.96508 12.8346L4.47245 11.0118L4.3597 10.8239C3.87112 10.0347 3.60804 9.13268 3.60804 8.1931C3.60804 5.46833 5.84423 3.25094 8.58779 3.25094C9.88441 3.25094 11.1434 3.75831 12.083 4.69788C13.0226 5.63746 13.53 6.8777 13.53 8.1931C13.53 10.9179 11.2938 13.1541 8.569 13.1541ZM12.7971 3.98381C11.6696 2.85631 10.1663 2.23619 8.569 2.23619C5.28049 2.23619 2.5933 4.90459 2.5933 8.1931C2.5933 9.24543 2.87517 10.2602 3.38254 11.1622L2.53693 14.244L5.6939 13.4171C6.55831 13.8869 7.55426 14.15 8.55021 14.15C11.8387 14.15 14.5259 11.4816 14.5259 8.1931C14.5447 6.61462 13.9246 5.1113 12.7971 3.98381Z" fill="var(--fill-0, white)"/>
</g>
<defs>
<linearGradient id="paint0_linear_0_128" x1="8.39605" y1="0.0037583" x2="8.39605" y2="16.7695" gradientUnits="userSpaceOnUse">
<stop stop-color="#62FA7F"/>
<stop offset="0.6865" stop-color="#22CC40"/>
<stop offset="1" stop-color="#05B723"/>
</linearGradient>
</defs>
</svg>
